<?xml version="1.0" standalone="no"?>
<!DOCTYPE svg PUBLIC "-//W3C//DTD SVG 20010904//EN"
 "http://www.w3.org/TR/2001/REC-SVG-20010904/DTD/svg10.dtd">
<svg version="1.0" xmlns="http://www.w3.org/2000/svg"
 width="240.000000pt" height="240.000000pt" viewBox="0 0 240.000000 240.000000"
 preserveAspectRatio="xMidYMid meet">
<metadata>
Created by potrace 1.14, written by Peter Selinger 2001-2017
</metadata>
<g transform="translate(0.000000,240.000000) scale(0.100000,-0.100000)"
fill="#000000" stroke="none">
<path d="M1059 2326 c-2 -2 -23 -6 -47 -10 -255 -35 -535 -202 -704 -422 -94
-122 -178 -310 -207 -464 -19 -98 -21 -116 -22 -196 -5 -253 69 -484 225 -704
48 -66 176 -194 237 -235 24 -17 46 -33 49 -36 22 -27 360 -172 360 -154 0 2
14 0 30 -5 42 -12 152 -23 225 -23 541 0 997 382 1100 923 19 105 17 308 -5
412 -26 121 -47 182 -96 285 -154 319 -459 550 -814 617 -64 13 -321 21 -331
12z"/>
</g>
</svg>
